# WaveFront *.obj file (generated by Autodesk ATF)

mtllib kallax_with_backplate_meters.mtl

g Body1

v 0.388000 -0.003000 0.377000
v 0.388000 -0.003000 0.042000
v 0.723000 -0.003000 0.042000
v 0.723000 -0.003000 0.377000
v 0.377000 -0.003000 0.042000
v 0.377000 -0.003000 0.377000
v 0.042000 -0.003000 0.377000
v 0.042000 -0.003000 0.042000
v 0.377000 -0.390000 0.377000
v 0.042000 -0.390000 0.377000
v 0.377000 -0.390000 0.042000
v 0.388000 -0.390000 0.042000
v 0.723000 -0.390000 0.042000
v 0.388000 -0.390000 0.377000
v 0.377000 -0.003000 0.388000
v 0.377000 -0.003000 0.723000
v 0.042000 -0.003000 0.723000
v 0.042000 -0.003000 0.388000
v 0.388000 -0.003000 0.723000
v 0.388000 -0.003000 0.388000
v 0.723000 -0.003000 0.388000
v 0.723000 -0.003000 0.723000
v 0.388000 -0.390000 0.388000
v 0.723000 -0.390000 0.388000
v 0.388000 -0.390000 0.723000
v 0.377000 -0.390000 0.723000
v 0.042000 -0.390000 0.723000
v 0.377000 -0.390000 0.388000
v 0.042000 -0.390000 0.388000
v 0.723000 -0.390000 0.377000
v 0.723000 -0.390000 0.723000
v 0.042000 -0.390000 0.042000
v 0.000000 0.000000 0.000000
v 0.000000 -0.390000 -0.000000
v 0.000000 -0.390000 0.765000
v 0.000000 -0.000000 0.765000
v 0.765000 0.000000 0.000000
v 0.765000 -0.000000 0.765000
v 0.765000 -0.390000 -0.000000
v 0.765000 -0.390000 0.765000
vt 0.000000 34.600000 0.000000
vt 33.500000 34.600000 0.000000
vt 0.000000 68.100000 0.000000
vt 33.500000 68.100000 0.000000
vt 33.500000 33.500000 0.000000
vt 0.000000 33.500000 0.000000
vt 33.500000 0.000000 0.000000
vt 0.000000 0.000000 0.000000
vt 0.300000 34.600000 0.000000
vt 39.000000 34.600000 0.000000
vt 0.300000 68.100000 0.000000
vt 39.000000 68.100000 0.000000
vt 0.300000 -34.600000 0.000000
vt 39.000000 -34.600000 0.000000
vt 0.300000 -1.100000 0.000000
vt 39.000000 -1.100000 0.000000
vt 34.050000 19.200000 0.000000
vt 0.550000 19.200000 0.000000
vt 34.050000 -19.500000 0.000000
vt 0.550000 -19.500000 0.000000
vt 38.700000 -1.100000 0.000000
vt 0.000000 -1.100000 0.000000
vt 38.700000 -34.600000 0.000000
vt 0.000000 -34.600000 0.000000
vt 33.500000 33.500000 0.000000
vt 0.000000 33.500000 0.000000
vt 33.500000 0.000000 0.000000
vt 0.000000 0.000000 0.000000
vt 0.000000 34.600000 0.000000
vt 33.500000 34.600000 0.000000
vt 0.000000 68.100000 0.000000
vt 33.500000 68.100000 0.000000
vt 38.700000 33.500000 0.000000
vt 0.000000 33.500000 0.000000
vt 38.700000 0.000000 0.000000
vt 0.000000 0.000000 0.000000
vt 38.700000 33.500000 0.000000
vt 0.000000 33.500000 0.000000
vt 38.700000 0.000000 0.000000
vt 0.000000 0.000000 0.000000
vt 19.200000 -0.550000 0.000000
vt -19.500000 -0.550000 0.000000
vt 19.200000 -34.050000 0.000000
vt -19.500000 -34.050000 0.000000
vt 0.300000 0.000000 0.000000
vt 39.000000 0.000000 0.000000
vt 0.300000 33.500000 0.000000
vt 39.000000 33.500000 0.000000
vt 38.700000 68.100000 0.000000
vt 0.000000 68.100000 0.000000
vt 38.700000 34.600000 0.000000
vt 0.000000 34.600000 0.000000
vt 0.300000 0.000000 0.000000
vt 39.000000 0.000000 0.000000
vt 0.300000 33.500000 0.000000
vt 39.000000 33.500000 0.000000
vt 19.200000 34.050000 0.000000
vt -19.500000 34.050000 0.000000
vt 19.200000 0.550000 0.000000
vt -19.500000 0.550000 0.000000
vt -0.300000 72.300000 0.000000
vt -39.000000 72.300000 0.000000
vt -0.300000 38.800000 0.000000
vt -39.000000 38.800000 0.000000
vt -0.300000 37.700000 0.000000
vt -39.000000 37.700000 0.000000
vt -0.300000 4.200000 0.000000
vt -39.000000 4.200000 0.000000
vt -38.700000 38.800000 0.000000
vt -0.000000 38.800000 0.000000
vt -38.700000 72.300000 0.000000
vt -0.000000 72.300000 0.000000
vt -38.700000 4.200000 0.000000
vt -0.000000 4.200000 0.000000
vt -38.700000 37.700000 0.000000
vt -0.000000 37.700000 0.000000
vt -0.550000 19.200000 0.000000
vt -34.050000 19.200000 0.000000
vt -0.550000 -19.500000 0.000000
vt -34.050000 -19.500000 0.000000
vt 0.000000 0.000000 0.000000
vt 39.000000 0.000000 0.000000
vt 0.000000 76.500000 0.000000
vt 39.000000 76.500000 0.000000
vt 0.000000 0.000000 0.000000
vt 76.500000 0.000000 0.000000
vt 0.000000 76.500000 0.000000
vt 76.500000 76.500000 0.000000
vt 0.000000 0.000000 0.000000
vt 39.000000 0.000000 0.000000
vt 0.000000 76.500000 0.000000
vt 39.000000 76.500000 0.000000
vt 4.200000 4.200000 0.000000
vt 0.000000 0.000000 0.000000
vt 37.700000 4.200000 0.000000
vt 76.500000 0.000000 0.000000
vt 38.800000 4.200000 0.000000
vt 72.300000 4.200000 0.000000
vt 72.300000 37.700000 0.000000
vt 72.300000 38.800000 0.000000
vt 38.800000 38.800000 0.000000
vt 4.200000 37.700000 0.000000
vt 4.200000 38.800000 0.000000
vt 0.000000 76.500000 0.000000
vt 4.200000 72.300000 0.000000
vt 37.700000 72.300000 0.000000
vt 37.700000 37.700000 0.000000
vt 37.700000 38.800000 0.000000
vt 38.800000 37.700000 0.000000
vt 38.800000 72.300000 0.000000
vt 76.500000 76.500000 0.000000
vt 72.300000 72.300000 0.000000
vt 19.500000 38.250000 0.000000
vt -19.500000 38.250000 0.000000
vt 19.500000 -38.250000 0.000000
vt -19.500000 -38.250000 0.000000
vt -38.250000 -19.500000 0.000000
vt 38.250000 -19.500000 0.000000
vt -38.250000 19.500000 0.000000
vt 38.250000 19.500000 0.000000
vn 0.000000 -100.000000 0.000000
vn 0.000000 -100.000000 0.000000
vn 0.000000 -100.000000 0.000000
vn 0.000000 -100.000000 0.000000
vn 0.000000 -100.000000 0.000000
vn 0.000000 -100.000000 0.000000
vn 0.000000 -100.000000 0.000000
vn 0.000000 -100.000000 0.000000
vn 0.000000 0.000000 -100.000000
vn 0.000000 0.000000 -100.000000
vn 0.000000 0.000000 -100.000000
vn 0.000000 0.000000 -100.000000
vn -100.000000 0.000000 0.000000
vn -100.000000 0.000000 0.000000
vn -100.000000 0.000000 0.000000
vn -100.000000 0.000000 0.000000
vn 0.000000 -0.000000 100.000000
vn 0.000000 -0.000000 100.000000
vn 0.000000 -0.000000 100.000000
vn 0.000000 -0.000000 100.000000
vn 100.000000 0.000000 0.000000
vn 100.000000 0.000000 0.000000
vn 100.000000 0.000000 0.000000
vn 100.000000 0.000000 0.000000
vn 0.000000 -100.000000 0.000000
vn 0.000000 -100.000000 0.000000
vn 0.000000 -100.000000 0.000000
vn 0.000000 -100.000000 0.000000
vn 0.000000 -100.000000 0.000000
vn 0.000000 -100.000000 0.000000
vn 0.000000 -100.000000 0.000000
vn 0.000000 -100.000000 0.000000
vn 0.000000 0.000000 100.000000
vn 0.000000 0.000000 100.000000
vn 0.000000 0.000000 100.000000
vn 0.000000 0.000000 100.000000
vn 100.000000 0.000000 0.000000
vn 100.000000 0.000000 0.000000
vn 100.000000 0.000000 0.000000
vn 100.000000 0.000000 0.000000
vn -0.000000 0.000000 -100.000000
vn -0.000000 0.000000 -100.000000
vn -0.000000 0.000000 -100.000000
vn -0.000000 0.000000 -100.000000
vn -100.000000 0.000000 0.000000
vn -100.000000 0.000000 0.000000
vn -100.000000 0.000000 0.000000
vn -100.000000 0.000000 0.000000
vn 0.000000 0.000000 100.000000
vn 0.000000 0.000000 100.000000
vn 0.000000 0.000000 100.000000
vn 0.000000 0.000000 100.000000
vn 0.000000 0.000000 -100.000000
vn 0.000000 0.000000 -100.000000
vn 0.000000 0.000000 -100.000000
vn 0.000000 0.000000 -100.000000
vn -0.000000 0.000000 -100.000000
vn -0.000000 0.000000 -100.000000
vn -0.000000 0.000000 -100.000000
vn -0.000000 0.000000 -100.000000
vn 100.000000 0.000000 0.000000
vn 100.000000 0.000000 0.000000
vn 100.000000 0.000000 0.000000
vn 100.000000 0.000000 0.000000
vn 100.000000 0.000000 0.000000
vn 100.000000 0.000000 0.000000
vn 100.000000 0.000000 0.000000
vn 100.000000 0.000000 0.000000
vn -100.000000 0.000000 0.000000
vn -100.000000 0.000000 0.000000
vn -100.000000 0.000000 0.000000
vn -100.000000 0.000000 0.000000
vn -100.000000 0.000000 0.000000
vn -100.000000 0.000000 0.000000
vn -100.000000 0.000000 0.000000
vn -100.000000 0.000000 0.000000
vn 0.000000 -0.000000 100.000000
vn 0.000000 -0.000000 100.000000
vn 0.000000 -0.000000 100.000000
vn 0.000000 -0.000000 100.000000
vn -100.000000 0.000000 0.000000
vn -100.000000 0.000000 0.000000
vn -100.000000 0.000000 0.000000
vn -100.000000 0.000000 0.000000
vn 0.000000 100.000000 0.000000
vn 0.000000 100.000000 0.000000
vn 0.000000 100.000000 0.000000
vn 0.000000 100.000000 0.000000
vn 100.000000 0.000000 0.000000
vn 100.000000 0.000000 0.000000
vn 100.000000 0.000000 0.000000
vn 100.000000 0.000000 0.000000
vn 0.000000 -100.000000 -0.000000
vn 0.000000 -100.000000 -0.000000
vn 0.000000 -100.000000 -0.000000
vn 0.000000 -100.000000 -0.000000
vn 0.000000 -100.000000 -0.000000
vn 0.000000 -100.000000 -0.000000
vn 0.000000 -100.000000 -0.000000
vn 0.000000 -100.000000 -0.000000
vn 0.000000 -100.000000 -0.000000
vn 0.000000 -100.000000 -0.000000
vn 0.000000 -100.000000 -0.000000
vn 0.000000 -100.000000 -0.000000
vn 0.000000 -100.000000 -0.000000
vn 0.000000 -100.000000 -0.000000
vn 0.000000 -100.000000 -0.000000
vn 0.000000 -100.000000 -0.000000
vn 0.000000 -100.000000 -0.000000
vn 0.000000 -100.000000 -0.000000
vn 0.000000 -100.000000 -0.000000
vn 0.000000 -100.000000 -0.000000
vn 0.000000 -0.000000 100.000000
vn 0.000000 -0.000000 100.000000
vn 0.000000 -0.000000 100.000000
vn 0.000000 -0.000000 100.000000
vn -0.000000 0.000000 -100.000000
vn -0.000000 0.000000 -100.000000
vn -0.000000 0.000000 -100.000000
vn -0.000000 0.000000 -100.000000
usemtl Steel_-_Satin
f 1/1/1 2/2/2 4/3/3
f 4/3/3 2/2/2 3/4/4
f 5/5/5 6/6/6 8/7/7
f 8/7/7 6/6/6 7/8/8
f 6/9/9 9/10/10 7/11/11
f 7/11/11 9/10/10 10/12/12
f 5/13/13 11/14/14 6/15/15
f 6/15/15 11/14/14 9/16/16
f 3/17/17 2/18/18 13/19/19
f 13/19/19 2/18/18 12/20/20
f 1/21/21 14/22/22 2/23/23
f 2/23/23 14/22/22 12/24/24
f 15/25/25 16/26/26 18/27/27
f 18/27/27 16/26/26 17/28/28
f 19/29/29 20/30/30 22/31/31
f 22/31/31 20/30/30 21/32/32
f 20/33/33 23/34/34 21/35/35
f 21/35/35 23/34/34 24/36/36
f 19/37/37 25/38/38 20/39/39
f 20/39/39 25/38/38 23/40/40
f 16/41/41 26/42/42 17/43/43
f 17/43/43 26/42/42 27/44/44
f 15/45/45 28/46/46 16/47/47
f 16/47/47 28/46/46 26/48/48
f 18/49/49 29/50/50 15/51/51
f 15/51/51 29/50/50 28/52/52
f 4/53/53 30/54/54 1/55/55
f 1/55/55 30/54/54 14/56/56
f 22/57/57 31/58/58 19/59/59
f 19/59/59 31/58/58 25/60/60
f 17/61/61 27/62/62 18/63/63
f 18/63/63 27/62/62 29/64/64
f 7/65/65 10/66/66 8/67/67
f 8/67/67 10/66/66 32/68/68
f 21/69/69 24/70/70 22/71/71
f 22/71/71 24/70/70 31/72/72
f 3/73/73 13/74/74 4/75/75
f 4/75/75 13/74/74 30/76/76
f 5/77/77 8/78/78 11/79/79
f 11/79/79 8/78/78 32/80/80
f 33/81/81 34/82/82 36/83/83
f 36/83/83 34/82/82 35/84/84
f 37/85/85 33/86/86 38/87/87
f 38/87/87 33/86/86 36/88/88
f 39/89/89 37/90/90 40/91/91
f 40/91/91 37/90/90 38/92/92
f 32/93/93 34/94/94 11/95/95
f 11/95/95 34/94/94 39/96/96
f 11/95/95 39/96/96 12/97/97
f 12/97/97 39/96/96 13/98/98
f 13/98/98 39/96/96 30/99/99
f 30/99/99 39/96/96 24/100/100
f 30/99/99 24/100/100 23/101/101
f 32/93/93 10/102/102 34/94/94
f 34/94/94 10/102/102 29/103/103
f 34/94/94 29/103/103 35/104/104
f 35/104/104 29/103/103 27/105/105
f 35/104/104 27/105/105 26/106/106
f 10/102/102 9/107/107 29/103/103
f 29/103/103 9/107/107 28/108/108
f 28/108/108 9/107/107 14/109/109
f 28/108/108 14/109/109 23/101/101
f 23/101/101 14/109/109 30/99/99
f 14/109/109 9/107/107 12/97/97
f 12/97/97 9/107/107 11/95/95
f 28/108/108 23/101/101 26/106/106
f 26/106/106 23/101/101 25/110/110
f 26/106/106 25/110/110 35/104/104
f 35/104/104 25/110/110 40/111/111
f 40/111/111 25/110/110 31/112/112
f 40/111/111 31/112/112 24/100/100
f 39/96/96 40/111/111 24/100/100
f 40/113/113 38/114/114 35/115/115
f 35/115/115 38/114/114 36/116/116
f 39/117/117 34/118/118 37/119/119
f 37/119/119 34/118/118 33/120/120
# 40 vertices
# 120 texture params
# 120 normals
# 76 facets

# 1 groups
